# xmcd
#
# Track frame offsets:
#	150
#	11313
#	25499
#	39445
#	52761
#	65400
#	78602
#	88683
#	102995
#	114250
#	125331
#	138791
#	153881
#	165037
#	177940
#	191389
#
# Disc length: 2716 seconds
#
# Revision: 0
# Processed by: cddbd v1.5.1PL2 Copyright (c) Steve Scherf et al.
# Submitted via: audiograbber 1.83.01
#
DISCID=b40a9a10
DTITLE=Various Artist - Rhythm and Blues - CD 2
DYEAR=2006
DGENRE=Blues
TTITLE0=Bo Diddley - Bo Diddley
TTITLE1=La Vera Baker - Tweedle Dee
TTITLE2=Charles Brown - Black Night
TTITLE3=The Trifters - Money Honey
TTITLE4=Amon Milburn - One Scotch, One Bourbon, One Beer
TTITLE5=Little Willie John - All Around The World
TTITLE6=The Crown - Gee
TTITLE7=The Moonglown - Sincerely
TTITLE8=Fats Domino - Goin' To The River
TTITLE9=Peppermint Harris - I Got Loaded
TTITLE10=Big Joe Turner - Shake, Rattle And Roll
TTITLE11=Griffin Brothers - Weepin' An Cryin'
TTITLE12=The Clovers - One Mint Julep
TTITLE13=Johnny "Guitar" Watson - Those Lonely, Lonely Nights
TTITLE14=Roy Hamilton - Unchained Melody
TTITLE15=The Robins - Smokey Joe's Café
EXTD=
EXTT0=
EXTT1=
EXTT2=
EXTT3=
EXTT4=
EXTT5=
EXTT6=
EXTT7=
EXTT8=
EXTT9=
EXTT10=
EXTT11=
EXTT12=
EXTT13=
EXTT14=
EXTT15=
PLAYORDER=
